<?xml version="1.0" standalone="no"?>
<!DOCTYPE svg PUBLIC "-//W3C//DTD SVG 20010904//EN"
 "http://www.w3.org/TR/2001/REC-SVG-20010904/DTD/svg10.dtd">
<svg version="1.0" xmlns="http://www.w3.org/2000/svg"
 width="64.000000pt" height="64.000000pt" viewBox="0 0 64.000000 64.000000"
 preserveAspectRatio="xMidYMid meet">

<g transform="translate(0.000000,64.000000) scale(0.100000,-0.100000)"
fill="#eb008b" stroke="none">
<path d="M179 616 c-9 -18 -9 -33 0 -58 11 -30 10 -34 -14 -51 -15 -11 -25
-29 -25 -43 0 -19 -5 -24 -24 -24 -25 0 -37 -15 -28 -37 2 -7 10 -13 18 -13
11 0 14 -17 14 -68 0 -66 -1 -68 -30 -79 -27 -10 -30 -16 -30 -55 0 -24 6 -50
12 -57 11 -11 10 -14 -1 -18 -31 -12 -52 -44 -49 -76 l3 -32 295 0 295 0 3 32
c3 32 -18 64 -49 76 -11 4 -12 7 -1 18 17 18 15 85 -4 103 -20 20 -44 20 -72
0 -29 -20 -39 -12 -24 21 15 33 15 78 0 93 -16 16 -70 16 -86 0 -16 -16 -15
-73 0 -98 18 -28 5 -33 -31 -13 -30 17 -31 21 -31 84 0 58 3 67 20 72 24 6 27
35 4 44 -11 4 -13 13 -9 34 7 31 -19 78 -44 79 -10 0 -8 -7 7 -23 23 -25 29
-52 12 -62 -5 -3 -10 1 -10 9 0 9 -11 23 -25 32 -19 12 -23 20 -15 30 6 7 10
32 8 56 -3 42 -4 43 -40 46 -32 3 -40 -1 -49 -22z m71 -4 c0 -4 -11 -9 -25
-10 -14 -1 -25 3 -25 8 0 6 11 10 25 10 14 0 25 -4 25 -8z m-2 -49 c-4 -22
-38 -30 -49 -11 -15 22 -10 28 22 28 24 0 30 -4 27 -17z m-40 -75 c10 -10 17
-10 34 1 19 12 23 11 35 -5 24 -33 12 -59 -15 -32 -9 9 -12 9 -12 0 0 -16 -47
-15 -54 1 -5 10 -7 10 -12 0 -9 -19 -24 -16 -24 5 0 17 18 42 30 42 3 0 12 -6
18 -12z m60 -75 c-88 -4 -107 -23 -23 -23 l55 0 0 -73 c0 -62 -3 -74 -21 -85
-25 -16 -37 -8 -20 12 7 8 11 35 9 63 l-3 48 -45 0 -45 0 -3 -48 c-2 -27 2
-55 8 -62 15 -18 -6 -31 -25 -15 -18 15 -22 160 -5 160 25 0 6 19 -22 23 -18
2 23 4 92 3 73 0 93 -1 48 -3z m-30 -72 c21 -13 11 -55 -15 -59 -30 -4 -49 31
-27 52 18 18 24 19 42 7z m216 -13 c15 -25 -17 -57 -42 -42 -22 14 -28 44 -10
55 18 12 39 7 52 -13z m-214 -72 c-6 -6 -10 -18 -10 -28 0 -10 -4 -18 -10 -18
-5 0 -10 8 -10 18 0 10 -4 22 -9 28 -6 6 1 9 19 9 18 0 26 -3 20 -9z m202 -17
c-5 -11 -12 -20 -17 -20 -5 0 -12 9 -17 20 -6 18 -3 21 17 21 20 0 23 -3 17
-21z m-294 -36 c4 -28 -32 -50 -54 -32 -15 12 -19 41 -7 53 16 15 58 1 61 -21z
m201 13 c22 -26 -10 -63 -44 -50 -15 6 -21 45 -8 57 11 12 40 8 52 -7z m209
-12 c6 -40 -48 -56 -62 -18 -10 26 5 45 33 42 17 -2 27 -10 29 -24z m-319 -5
c23 13 31 5 31 -30 0 -15 5 -31 10 -34 16 -10 12 -19 -20 -37 -23 -13 -30 -24
-30 -48 0 -37 -15 -39 -25 -2 -8 32 -33 62 -52 62 -12 0 -11 4 1 22 9 12 16
32 16 44 0 28 9 35 31 23 13 -6 25 -6 38 0z m171 -1 c15 -10 22 -10 32 0 18
18 28 15 28 -10 0 -13 7 -35 14 -50 10 -19 11 -28 4 -28 -22 0 -48 -34 -48
-62 0 -25 -3 -28 -34 -28 -19 0 -37 6 -40 13 -5 9 -7 9 -12 0 -3 -7 -18 -13
-34 -13 -16 0 -31 6 -34 13 -5 9 -7 9 -12 0 -10 -21 -24 -15 -24 11 0 33 18
43 75 41 66 -3 65 -3 65 -19 0 -8 5 -18 10 -21 6 -3 10 3 10 15 0 12 -12 28
-29 38 -22 13 -27 22 -20 32 5 8 9 27 9 41 0 39 10 46 40 27z m-278 -74 c-4
-22 -32 -35 -32 -15 0 5 -2 15 -5 23 -3 8 3 13 18 14 20 1 23 -2 19 -22z m204
-1 c-6 -12 -13 -23 -16 -23 -3 0 -10 11 -16 23 -10 22 -8 24 16 24 24 0 26 -2
16 -24z m210 0 c-6 -12 -13 -23 -16 -23 -3 0 -10 11 -16 23 -10 22 -8 24 16
24 24 0 26 -2 16 -24z m-366 -53 c14 -22 12 -50 -4 -50 -8 0 -17 6 -20 13 -5
10 -7 10 -12 0 -7 -16 -46 -17 -62 -1 -9 9 -12 9 -12 0 0 -7 -7 -12 -15 -12
-17 0 -21 40 -5 56 16 16 119 11 130 -6z m408 7 c14 -9 17 -57 3 -57 -5 0 -12
6 -15 13 -5 10 -7 10 -12 0 -7 -17 -61 -17 -68 0 -5 10 -7 10 -12 0 -3 -7 -13
-13 -21 -13 -12 0 -14 7 -8 27 3 15 10 30 15 33 13 8 104 6 118 -3z"/>
<path d="M387 614 c-4 -4 -7 -29 -7 -56 0 -34 5 -50 15 -54 8 -4 15 -12 15
-20 0 -16 26 -19 35 -3 4 6 17 15 29 20 19 8 18 9 -9 8 -66 -2 -65 -3 -65 51
l0 51 98 -3 97 -3 3 -47 3 -47 -43 -4 c-40 -4 -39 -4 7 -3 l50 1 0 55 0 55
-111 3 c-60 1 -113 -1 -117 -4z"/>
<path d="M420 580 c0 -6 34 -10 81 -10 51 0 78 4 74 10 -3 6 -40 10 -81 10
-43 0 -74 -4 -74 -10z"/>
<path d="M425 540 c3 -5 22 -10 41 -10 19 0 34 5 34 10 0 6 -18 10 -41 10 -24
0 -38 -4 -34 -10z"/>
</g>
</svg>
