<?xml version="1.0" standalone="no"?>
<!DOCTYPE svg PUBLIC "-//W3C//DTD SVG 20010904//EN"
 "http://www.w3.org/TR/2001/REC-SVG-20010904/DTD/svg10.dtd">
<svg version="1.0" xmlns="http://www.w3.org/2000/svg"
 width="64.000000pt" height="64.000000pt" viewBox="0 0 64.000000 64.000000"
 preserveAspectRatio="xMidYMid meet">

<g transform="translate(0.000000,64.000000) scale(0.100000,-0.100000)"
fill="#eb008b" stroke="none">
<path d="M299 605 c-11 -30 -18 -35 -56 -41 -24 -3 -43 -9 -43 -12 0 -3 13
-17 30 -31 27 -24 29 -29 21 -63 -5 -20 -7 -39 -4 -42 3 -2 20 5 39 16 l34 20
34 -20 c19 -11 36 -18 39 -16 3 3 1 22 -4 42 -8 34 -6 39 21 63 17 14 30 28
30 31 0 3 -19 9 -43 12 -38 6 -45 11 -56 41 -7 19 -16 35 -21 35 -5 0 -14 -16
-21 -35z m36 -35 c4 -12 15 -20 29 -20 33 0 39 -11 15 -28 -16 -11 -19 -20
-14 -43 7 -32 4 -35 -25 -17 -16 10 -24 10 -40 0 -29 -18 -32 -15 -25 16 4 20
1 33 -10 42 -22 18 -19 30 9 30 16 0 27 7 31 20 3 11 10 20 15 20 5 0 12 -9
15 -20z"/>
<path d="M99 538 c-7 -17 -23 -29 -40 -33 -34 -8 -36 -16 -11 -38 13 -12 17
-26 14 -47 -5 -33 3 -37 32 -15 16 12 21 12 40 0 31 -22 39 -18 34 15 -3 21 1
35 14 47 25 23 23 30 -12 38 -16 4 -30 10 -30 14 0 4 -6 16 -14 26 -14 19 -15
19 -27 -7z m47 -48 c9 0 13 -5 10 -12 -3 -7 -9 -21 -12 -31 -4 -10 -12 -16
-18 -14 -6 2 -19 0 -29 -5 -16 -8 -18 -7 -13 10 4 11 2 23 -4 27 -15 9 -12 25
5 25 9 0 18 7 22 16 5 15 7 15 15 0 5 -9 16 -16 24 -16z"/>
<path d="M509 538 c-7 -17 -23 -29 -40 -33 -34 -8 -36 -16 -11 -38 13 -12 17
-26 14 -47 -5 -33 3 -37 34 -15 19 12 24 12 40 0 29 -22 37 -18 32 15 -3 21 1
35 14 47 25 23 23 30 -12 38 -16 4 -30 10 -30 14 0 4 -6 16 -14 26 -14 19 -15
19 -27 -7z m46 -48 c17 0 20 -16 5 -25 -6 -4 -8 -16 -4 -27 5 -17 3 -18 -13
-10 -10 5 -23 7 -29 5 -6 -2 -14 4 -18 14 -3 10 -9 24 -12 31 -3 7 1 12 10 12
9 0 19 7 23 16 5 15 7 15 15 0 5 -9 16 -16 23 -16z"/>
<path d="M308 417 c-9 -6 -18 -30 -21 -52 -5 -31 -16 -48 -49 -77 -27 -23 -47
-33 -52 -27 -6 5 -38 9 -73 9 l-63 0 0 -125 0 -125 69 0 c45 0 71 4 73 12 3 8
16 5 42 -10 31 -18 52 -22 130 -22 63 0 97 4 104 13 10 13 23 69 22 104 0 12
5 25 10 28 6 3 10 15 10 26 0 10 6 28 12 39 24 37 0 54 -83 60 l-74 5 0 64 c0
53 -3 66 -21 77 -16 11 -23 11 -36 1z m36 -94 l-2 -72 82 -3 c64 -2 81 -6 81
-18 0 -8 -11 -16 -25 -18 -33 -5 -51 -22 -23 -22 12 0 25 -5 28 -10 8 -13 -14
-42 -26 -34 -15 9 -10 -13 6 -26 18 -15 3 -40 -24 -40 -14 -1 -13 -3 3 -15 11
-8 16 -21 13 -30 -10 -26 -160 -21 -219 7 l-48 23 0 76 0 76 55 50 c44 41 56
58 61 92 5 31 11 41 23 39 13 -3 16 -17 15 -75z m-174 -178 l0 -105 -50 0 -50
0 0 105 0 105 50 0 50 0 0 -105z"/>
<path d="M120 220 c0 -5 5 -10 11 -10 5 0 7 5 4 10 -3 6 -8 10 -11 10 -2 0 -4
-4 -4 -10z"/>
</g>
</svg>
