<?xml version="1.0" standalone="no"?>
<!DOCTYPE svg PUBLIC "-//W3C//DTD SVG 20010904//EN"
 "http://www.w3.org/TR/2001/REC-SVG-20010904/DTD/svg10.dtd">
<svg version="1.0" xmlns="http://www.w3.org/2000/svg"
 width="64.000000pt" height="64.000000pt" viewBox="0 0 64.000000 64.000000"
 preserveAspectRatio="xMidYMid meet">

<g transform="translate(0.000000,64.000000) scale(0.100000,-0.100000)"
fill="#eb008b" stroke="none">
<path d="M113 628 c-30 -15 -45 -56 -41 -119 l3 -54 45 0 45 0 3 48 c3 43 1
47 -20 47 l-23 1 23 19 c15 12 22 28 20 42 -3 26 -23 32 -55 16z m14 -36 c-23
-26 -22 -58 3 -65 12 -3 20 -14 20 -26 0 -17 -6 -21 -31 -21 l-32 0 5 50 c5
49 21 80 41 80 5 0 3 -8 -6 -18z"/>
<path d="M245 628 c-36 -21 -44 -42 -45 -111 l0 -68 48 3 47 3 3 43 c3 37 0
44 -17 49 -26 7 -26 11 0 32 16 12 20 23 15 39 -8 24 -21 27 -51 10z m13 -35
c-29 -34 -29 -53 -3 -63 15 -6 25 -17 25 -30 0 -16 -7 -20 -30 -20 -29 0 -30
2 -30 43 0 43 21 87 42 87 7 0 5 -7 -4 -17z"/>
<path d="M340 530 c0 -5 5 -10 10 -10 6 0 10 5 10 10 0 6 -4 10 -10 10 -5 0
-10 -4 -10 -10z"/>
<path d="M390 533 c0 -6 21 -13 48 -17 58 -8 101 -33 138 -81 39 -51 46 -143
15 -203 -23 -45 -71 -87 -113 -97 -25 -6 -28 -12 -28 -48 l0 -41 -38 37 c-37
36 -40 37 -112 37 -140 1 -210 32 -251 112 -21 41 -23 120 -4 177 6 18 5 23
-6 19 -37 -12 -49 -130 -20 -193 44 -95 115 -134 246 -135 l91 0 49 -50 c27
-28 53 -50 57 -50 4 0 8 22 8 49 0 49 0 49 54 80 69 39 106 97 113 178 7 79
-32 155 -100 197 -48 29 -147 49 -147 29z"/>
<path d="M155 410 c-3 -5 0 -12 7 -15 25 -10 318 0 321 10 3 14 -319 19 -328
5z"/>
<path d="M160 340 c0 -6 60 -10 160 -10 100 0 160 4 160 10 0 6 -60 10 -160
10 -100 0 -160 -4 -160 -10z"/>
<path d="M160 270 c0 -6 60 -10 160 -10 100 0 160 4 160 10 0 6 -60 10 -160
10 -100 0 -160 -4 -160 -10z"/>
<path d="M230 204 c0 -8 5 -12 10 -9 6 3 10 10 10 16 0 5 -4 9 -10 9 -5 0 -10
-7 -10 -16z"/>
<path d="M302 208 c3 -9 29 -13 91 -13 120 0 118 19 -1 23 -73 2 -93 0 -90
-10z"/>
</g>
</svg>
