<?xml version="1.0" standalone="no"?>
<!DOCTYPE svg PUBLIC "-//W3C//DTD SVG 20010904//EN"
 "http://www.w3.org/TR/2001/REC-SVG-20010904/DTD/svg10.dtd">
<svg version="1.0" xmlns="http://www.w3.org/2000/svg"
 width="64.000000pt" height="64.000000pt" viewBox="0 0 64.000000 64.000000"
 preserveAspectRatio="xMidYMid meet">

<g transform="translate(0.000000,64.000000) scale(0.100000,-0.100000)"
fill="#eb008b" stroke="none">
<path d="M295 561 c-52 -13 -92 -39 -129 -83 -20 -23 -36 -45 -36 -50 0 -4 -6
-8 -13 -8 -8 0 -22 -9 -32 -20 -18 -20 -18 -21 2 -43 13 -14 22 -41 25 -74 5
-52 5 -52 -22 -47 -17 4 -31 0 -40 -11 -13 -15 -11 -20 11 -39 14 -12 28 -30
32 -39 3 -9 11 -17 18 -17 6 0 20 -11 31 -25 23 -30 48 -32 55 -6 5 19 6 18
51 -2 70 -32 153 -29 221 8 56 31 91 67 90 94 0 14 -1 14 -12 -1 -10 -15 -15
-13 -48 23 -42 45 -80 51 -115 18 l-22 -21 -11 35 c-7 19 -10 39 -9 43 8 24
-23 8 -77 -39 -81 -71 -129 -107 -144 -107 -21 0 28 72 112 164 59 64 85 86
104 86 22 0 24 -4 21 -31 -2 -17 2 -31 7 -30 6 1 10 18 10 39 0 34 -2 37 -31
40 -22 2 -40 -5 -63 -23 -28 -24 -31 -25 -31 -8 0 25 19 43 46 43 28 0 54 34
46 62 -2 11 -18 26 -35 33 l-30 12 38 7 c33 7 68 3 117 -10 10 -3 15 -11 11
-20 -3 -9 0 -32 7 -53 10 -32 10 -43 -4 -69 -23 -44 -20 -69 10 -99 23 -22 31
-25 73 -20 48 6 48 5 43 -21 -4 -22 -2 -25 8 -15 18 17 24 100 11 149 -6 23
-24 59 -40 81 -50 69 -175 115 -256 94z m24 -67 c19 -18 0 -42 -37 -46 -19 -2
-32 -13 -43 -34 l-15 -31 -37 14 c-20 9 -37 20 -37 25 0 6 20 30 44 54 39 39
47 43 77 38 19 -4 40 -12 48 -20z m185 -5 c34 -27 65 -87 72 -142 6 -40 4 -45
-17 -50 -83 -23 -139 30 -94 89 17 22 20 70 5 79 -12 8 -13 45 -1 45 4 0 20
-9 35 -21z m-328 -110 c61 -26 60 -24 41 -53 -12 -18 -22 -23 -39 -18 -19 4
-21 3 -11 -9 9 -11 7 -19 -7 -36 -15 -19 -19 -20 -24 -7 -10 26 -7 62 7 67 7
3 0 15 -21 33 -26 20 -30 29 -20 35 18 12 20 12 74 -12z m169 -164 c24 -54 24
-85 1 -85 -12 1 -76 83 -76 99 0 8 38 41 47 41 2 0 14 -25 28 -55z m140 -6
c33 -40 29 -58 -19 -85 -79 -44 -176 -39 -245 14 l-34 25 27 24 c15 13 30 23
34 23 4 0 23 -23 42 -50 38 -54 67 -64 88 -30 7 11 10 31 6 46 -8 31 19 64 52
64 13 0 33 -13 49 -31z m-386 2 c7 -5 10 -14 6 -20 -5 -9 -10 -9 -21 0 -26 22
-14 38 15 20z m81 -101 c0 -12 -3 -12 -16 2 -9 9 -13 21 -9 28 9 14 25 -5 25
-30z"/>
</g>
</svg>
